<?xml version="1.0" encoding="UTF-8"?>
<svg width="196px" height="196px" viewBox="0 0 196 196" version="1.1" xmlns="http://www.w3.org/2000/svg" xmlns:xlink="http://www.w3.org/1999/xlink">
    <!-- Generator: Sketch 48.2 (47327) - http://www.bohemiancoding.com/sketch -->
    <title>world</title>
    <desc>Created with Sketch.</desc>
    <defs></defs>
    <g id="Page-1" stroke="none" stroke-width="1" fill="none" fill-rule="evenodd">
        <g id="world" fill="#FFFFFF" fill-rule="nonzero">
            <path d="M179.382693,43.654289 L176.446553,44.5817861 L160.810042,45.9699194 L156.393336,52.9977332 L153.18857,51.9830887 L140.744331,40.8033247 L138.938917,34.9893495 L136.521286,28.7894358 L128.699907,21.7989709 L119.472929,20 L119.260528,24.2079735 L128.300093,32.9974093 L132.723045,38.1889033 L127.750347,40.7784254 L123.702221,39.5894862 L117.63628,37.068437 L117.842434,32.1944085 L109.883619,28.9326065 L107.241092,40.392487 L99.2198056,42.2039076 L100.013188,48.5967904 L110.4646,50.6011802 L112.270014,40.3862622 L120.89727,41.6561241 L124.907913,43.9966537 L131.342434,43.9966537 L135.746645,52.7860895 L147.42249,64.5883348 L146.566636,69.1760219 L137.152244,67.9808578 L120.884776,76.1664868 L109.171448,90.166091 L107.647154,96.3660046 L103.442851,96.3660046 L95.6089773,92.7680628 L88,96.3660046 L89.8928737,104.364889 L93.2038408,100.561528 L99.0261453,100.381009 L98.6200833,107.564443 L103.442851,108.971251 L108.259371,114.361939 L116.124479,112.158355 L125.10782,113.571387 L135.540491,116.366328 L140.750578,116.97636 L149.583989,126.967185 L166.632346,136.958009 L155.606201,157.948079 L143.967839,163.338767 L139.551134,175.333981 L122.708931,186.538644 L120.916011,193 C163.971078,182.666811 196,144.128994 196,98.0529289 C195.987506,77.9281088 189.86534,59.1976468 179.382693,43.654289 Z" id="Shape"></path>
            <path d="M108.525366,149.217593 L101.435364,135.985765 L107.942796,122.335957 L101.435364,120.377073 L94.1284484,112.990705 L77.9404377,109.334952 L72.5671584,98.0183386 L72.5671584,104.737188 L70.1996929,104.737188 L56.2489991,85.6973288 L56.2489991,70.0574443 L46.0230352,53.3195863 L29.785444,56.2329593 L18.8467614,56.2329593 L13.3433335,52.6021604 L20.3651621,47 L13.3619262,48.6282449 C4.92085779,63.1389633 0,79.9766371 0,98.0121002 C0,152.118489 43.5750014,196 97.3325838,196 C101.47255,196 105.531948,195.631929 109.547962,195.145327 L108.531564,183.273489 C108.531564,183.273489 113,165.643527 113,165.044632 C112.993802,164.439499 108.525366,149.217593 108.525366,149.217593 Z" id="Shape"></path>
            <path d="M35.966805,31.9278585 L53.3319502,29.4757486 L61.3360996,25.0316932 L70.3423237,27.6603047 L84.7323651,26.8534407 L89.6618257,19.0054281 L96.8506224,20.2031168 L114.309129,18.5452635 L119.120332,13.1745754 L125.904564,8.58553668 L135.502075,10.0479776 L139,9.5121695 C126.358921,3.4859044 112.292531,0 97.3858921,0 C67.0435685,0 39.9128631,14.0066538 22,36 L22.0497925,36 L35.966805,31.9278585 Z M101.518672,9.8462616 L111.502075,4.28016109 L117.912863,8.03081772 L108.63278,15.1854316 L99.7697095,16.0868499 L95.780083,13.4645421 L101.518672,9.8462616 Z M71.9481328,10.6594292 L76.3547718,12.5189984 L82.1244813,10.6594292 L85.2676349,16.1751007 L71.9481328,19.7177377 L65.5435685,15.9229557 C65.5373444,15.9229557 71.8049793,11.838207 71.9481328,10.6594292 Z" id="Shape"></path>
        </g>
    </g>
</svg>