<?xml version="1.0" encoding="UTF-8"?>
<svg width="449px" height="512px" viewBox="0 0 449 512" version="1.1" xmlns="http://www.w3.org/2000/svg" xmlns:xlink="http://www.w3.org/1999/xlink">
    <!-- Generator: Sketch 48.2 (47327) - http://www.bohemiancoding.com/sketch -->
    <title>android</title>
    <desc>Created with Sketch.</desc>
    <defs></defs>
    <g id="Page-1" stroke="none" stroke-width="1" fill="none" fill-rule="evenodd">
        <g id="android" fill="#FFFFFF" fill-rule="nonzero">
            <path d="M32.004,192.007 C14.34,192.007 0.004,206.343 0.004,224.007 L0.004,352.007 C0.004,369.671 14.34,384.007 32.004,384.007 C49.668,384.007 64.004,369.671 64.004,352.007 L64.004,224.007 C64.004,206.343 49.668,192.007 32.004,192.007 Z" id="Shape"></path>
            <path d="M416.004,192.007 C398.34,192.007 384.004,206.343 384.004,224.007 L384.004,352.007 C384.004,369.671 398.34,384.007 416.004,384.007 C433.668,384.007 448.004,369.671 448.004,352.007 L448.004,224.007 C448.004,206.343 433.668,192.007 416.004,192.007 Z" id="Shape"></path>
            <path d="M96.004,385.863 C96.004,403.527 110.34,417.863 128.004,417.863 L128.004,480.007 C128.004,497.671 142.34,512.007 160.004,512.007 C177.668,512.007 192.004,497.671 192.004,480.007 L192.004,417.863 L256.004,417.863 L256.004,480.007 C256.004,497.671 270.34,512.007 288.004,512.007 C305.668,512.007 320.004,497.671 320.004,480.007 L320.004,417.863 C337.668,417.863 352.004,403.527 352.004,385.863 L352.004,193.863 L96.004,193.863 L96.004,385.863 Z" id="Shape"></path>
            <path d="M303.876,60.711 L332.356,26.183 C337.988,19.367 337.028,9.287 330.212,3.655 C323.364,-1.945 313.316,-1.017 307.684,5.799 L276.548,43.527 C260.484,36.263 242.788,32.007 224.004,32.007 C204.964,32.007 187.044,36.423 170.82,43.911 L140.516,6.023 C134.98,-0.857 124.932,-2.009 118.02,3.527 C111.14,9.063 110.02,19.111 115.524,26.023 L143.62,61.159 C114.788,84.615 96.004,119.943 96.004,160.007 L352.004,160.007 C352.004,119.687 332.996,84.167 303.876,60.711 Z M192.004,112.007 C183.172,112.007 176.004,104.839 176.004,96.007 C176.004,87.175 183.172,80.007 192.004,80.007 C200.836,80.007 208.004,87.175 208.004,96.007 C208.004,104.839 200.836,112.007 192.004,112.007 Z M256.004,112.007 C247.172,112.007 240.004,104.839 240.004,96.007 C240.004,87.175 247.172,80.007 256.004,80.007 C264.836,80.007 272.004,87.175 272.004,96.007 C272.004,104.839 264.836,112.007 256.004,112.007 Z" id="Shape"></path>
        </g>
    </g>
</svg>